<?xml version="1.0" encoding="utf-8"?>
<svg xmlns="http://www.w3.org/2000/svg" xmlns:svg="http://www.w3.org/2000/svg" version="1.1" viewBox="0 0 1400 590">
	<title>The titlepage for the Standard Ebooks edition of Les Misérables, by Victor Hugo. Translated by Isabel F. Hapgood</title>
	<g>
		<path d="m 290.30262,52.807016 -17.59064,0 0,77.192984 44.16374,0 0,-15.4386 -26.5731,0 0,-61.754384 z"/>
		<path d="m 374.69005,52.807016 -44.16374,0 0,77.192984 44.16374,0 0,-15.4386 -26.5731,0 0,-15.532161 25.4503,0 0,-15.438597 -25.4503,0 0,-15.345029 26.5731,0 0,-15.438597 z"/>
		<path d="m 418.24707,51.403507 c -12.44444,0 -25.16959,9.169591 -25.16959,23.578948 0,8.046784 5.4269,15.251462 14.69006,19.836258 9.16959,4.584795 17.40351,7.111107 17.40351,12.725147 0,7.20468 -7.29825,7.57895 -11.13451,7.57895 -8.60818,0 -18.90058,-8.70176 -18.90058,-8.70176 l -8.79532,14.78363 c 0,0 10.94737,10.19883 29.00585,10.19883 15.06432,0 29.09941,-6.45614 29.09941,-24.88889 0,-10.105264 -9.45029,-17.40351 -18.05848,-21.052632 -8.79532,-3.742691 -16.09357,-6.83041 -16.09357,-11.134504 0,-4.210526 3.18129,-6.923976 9.1696,-6.923976 7.95321,0 15.62573,5.333333 15.62573,5.333333 l 7.11111,-14.035088 c 0,0 -9.91813,-7.298246 -23.95322,-7.298246 z"/>
		<path d="m 552.06579,130 17.59064,0 -6.92398,-77.192984 -18.71345,0 -17.1228,44.538013 -17.12281,-44.538013 -18.71345,0 L 484.13596,130 l 17.59065,0 3.64912,-45.754387 0.46783,0 15.81287,45.286547 10.47953,0 15.81287,-45.286547 0.46783,0 L 552.06579,130 Z"/>
		<path d="m 599.29387,52.807016 -17.59065,0 0,77.192984 17.59065,0 0,-77.192984 z"/>
		<path d="m 642.19445,51.403507 c -12.44444,0 -25.16959,9.169591 -25.16959,23.578948 0,8.046784 5.4269,15.251462 14.69006,19.836258 9.16959,4.584795 17.40351,7.111107 17.40351,12.725147 0,7.20468 -7.29825,7.57895 -11.13451,7.57895 -8.60818,0 -18.90058,-8.70176 -18.90058,-8.70176 l -8.79532,14.78363 c 0,0 10.94737,10.19883 29.00585,10.19883 15.06432,0 29.09941,-6.45614 29.09941,-24.88889 0,-10.105264 -9.45029,-17.40351 -18.05848,-21.052632 -8.79532,-3.742691 -16.09357,-6.83041 -16.09357,-11.134504 0,-4.210526 3.18129,-6.923976 9.1696,-6.923976 7.95321,0 15.62573,5.333333 15.62573,5.333333 l 7.11111,-14.035088 c 0,0 -9.91813,-7.298246 -23.95322,-7.298246 z"/>
		<path d="m 692.09502,38.678361 5.23976,7.204678 22.26901,-12.91228 -8.51462,-10.760235 -18.99415,16.467837 z m 33.68421,14.128655 -44.16375,0 0,77.192984 44.16375,0 0,-15.4386 -26.5731,0 0,-15.532161 25.45029,0 0,-15.438597 -25.45029,0 0,-15.345029 26.5731,0 0,-15.438597 z"/>
		<path d="m 740.89182,52.807016 0,77.192984 17.59065,0 0,-30.502925 L 782.06141,130 l 22.36258,0 -26.5731,-31.906433 c 9.45029,-2.994152 15.81286,-10.760234 15.81286,-22.362574 0,-15.157895 -10.8538,-22.923977 -25.16959,-22.923977 l -27.60234,0 z m 17.59065,34.245615 0,-20.210527 2.05847,0 c 6.64328,0 14.5965,0.467836 14.5965,10.105263 0,9.637428 -7.95322,10.105264 -14.5965,10.105264 l -2.05847,0 z"/>
		<path d="m 852.1652,52.807016 -16.28071,0 L 804.7266,130 l 18.90058,0 5.70761,-15.4386 29.38011,0 5.70761,15.4386 18.90058,0 -31.15789,-77.192984 z m 0.5614,46.31579 -17.40351,0 8.60819,-22.45614 0.18713,0 8.60819,22.45614 z"/>
		<path d="m 891.24268,52.807016 0,77.192984 29.28655,0 c 16,0 25.26316,-8.79532 25.26316,-21.52047 0,-12.444443 -6.83041,-17.777776 -16.46784,-19.461987 6.54971,-3.368421 9.63743,-9.450292 9.63743,-16.561404 0,-14.690058 -10.47953,-19.649123 -23.76608,-19.649123 l -23.95322,0 z m 17.59065,30.222223 0,-16.654971 1.4035,0 c 7.67252,0 11.69591,2.339181 11.69591,7.859649 0,6.456141 -4.11696,8.795322 -11.69591,8.795322 l -1.4035,0 z m 0,33.403511 0,-18.245616 5.52046,0 c 8.32749,0 12.91228,2.526316 12.91228,9.637426 0,6.08187 -4.58479,8.60819 -12.91228,8.60819 l -5.52046,0 z"/>
		<path d="m 976.15059,52.807016 -17.59065,0 0,77.192984 44.16376,0 0,-15.4386 -26.57311,0 0,-61.754384 z"/>
		<path d="m 1060.538,52.807016 -44.1637,0 0,77.192984 44.1637,0 0,-15.4386 -26.5731,0 0,-15.532161 25.4503,0 0,-15.438597 -25.4503,0 0,-15.345029 26.5731,0 0,-15.438597 z"/>
		<path d="m 1104.095,51.403507 c -12.4444,0 -25.1696,9.169591 -25.1696,23.578948 0,8.046784 5.4269,15.251462 14.6901,19.836258 9.1696,4.584795 17.4035,7.111107 17.4035,12.725147 0,7.20468 -7.2982,7.57895 -11.1345,7.57895 -8.6082,0 -18.9006,-8.70176 -18.9006,-8.70176 l -8.7953,14.78363 c 0,0 10.9474,10.19883 29.0058,10.19883 15.0644,0 29.0995,-6.45614 29.0995,-24.88889 0,-10.105264 -9.4503,-17.40351 -18.0585,-21.052632 -8.7953,-3.742691 -16.0936,-6.83041 -16.0936,-11.134504 0,-4.210526 3.1813,-6.923976 9.1696,-6.923976 7.9532,0 15.6257,5.333333 15.6257,5.333333 l 7.1111,-14.035088 c 0,0 -9.9181,-7.298246 -23.9532,-7.298246 z"/>
	</g>
	<g>
		<path d="m 435.66557,290 10.38597,0 24.2807,-57.89474 -14.87719,0 -14.5965,38.03509 -14.59649,-38.03509 -14.87719,0 L 435.66557,290 Z"/>
		<path d="m 490.71492,232.10526 -13.19299,0 0,57.89474 13.19299,0 0,-57.89474 z"/>
		<path d="m 532.79167,278.07018 c -13.26315,0 -19.08772,-9.26316 -19.08772,-17.05264 0,-7.71929 5.82457,-16.98245 19.08772,-16.98245 6.73685,0 11.36842,3.57895 11.36842,3.57895 l 5.61404,-11.22807 c 0,0 -6.45614,-5.33334 -19.01754,-5.33334 -16.42106,0 -31.36842,13.47369 -31.36842,30.10527 0,16.5614 15.01754,29.89473 31.36842,29.89473 12.5614,0 19.01754,-5.33333 19.01754,-5.33333 l -5.61404,-11.22807 c 0,0 -4.63157,3.57895 -11.36842,3.57895 z"/>
		<path d="m 556.24123,243.68421 13.75439,0 0,46.31579 13.19298,0 0,-46.31579 13.75439,0 0,-11.57895 -40.70176,0 0,11.57895 z"/>
		<path d="m 601.90461,261.01754 c 0,16.91228 12.07018,30.03509 29.19299,30.03509 16.63158,0 29.1228,-13.12281 29.1228,-30.03509 0,-16.91228 -13.05263,-29.96491 -29.1228,-29.96491 -15.92983,0 -29.19299,13.05263 -29.19299,29.96491 z m 14.24562,0 c 0,-8.63157 4.77193,-17.26315 14.94737,-17.26315 10.24561,0 14.87719,8.63158 14.87719,17.26315 0,8.63158 -4.35088,17.26316 -14.87719,17.26316 -10.80702,0 -14.94737,-8.63158 -14.94737,-17.26316 z"/>
		<path d="m 671.04166,232.10526 0,57.89474 13.19299,0 0,-22.87719 17.68421,22.87719 16.77193,0 -19.92983,-23.92982 c 7.08772,-2.24562 11.85965,-8.07018 11.85965,-16.77193 0,-11.36842 -8.14035,-17.19299 -18.87719,-17.19299 l -20.70176,0 z m 13.19299,25.68421 0,-15.15789 1.54386,0 c 4.98245,0 10.94736,0.35088 10.94736,7.57895 0,7.22807 -5.96491,7.57894 -10.94736,7.57894 l -1.54386,0 z"/>
		<path d="m 763.72479,266.77193 18.66666,0 0,23.22807 13.19299,0 0,-57.89474 -13.19299,0 0,23.08772 -18.66666,0 0,-23.08772 -13.19298,0 0,57.89474 13.19298,0 0,-23.22807 z"/>
		<path d="m 853.47698,232.10526 -13.19298,0 0,33.47369 c 0,9.68421 -2.94737,12.49123 -9.40351,12.49123 -6.45614,0 -9.40351,-2.80702 -9.40351,-12.49123 l 0,-33.47369 -13.19298,0 0,37.33334 c 0,14.31579 7.85965,21.61403 22.59649,21.61403 14.73684,0 22.59649,-7.29824 22.59649,-21.61403 l 0,-37.33334 z"/>
		<path d="m 918.557,257.57895 -26.73684,0 0,10.17544 13.33333,0 c 0,7.08772 -6.24561,11.15789 -12.5614,11.15789 -8.14035,0 -14.73684,-8 -14.73684,-17.82456 0,-10.03509 6.59649,-18.10526 14.73684,-18.10526 5.1228,0 9.54386,2.03508 12.91228,7.43859 l 8.63158,-9.47368 c -5.05263,-6.10526 -12.14035,-9.89474 -22.31579,-9.89474 -16.2807,0 -28.21053,13.40351 -28.21053,30.03509 0,16.5614 12.63158,29.96491 28.21053,29.96491 11.36842,0 23.57894,-6.24561 26.73684,-20.91228 l 0,-12.5614 z"/>
		<path d="m 926.72368,261.01754 c 0,16.91228 12.07017,30.03509 29.19298,30.03509 16.63158,0 29.1228,-13.12281 29.1228,-30.03509 0,-16.91228 -13.05263,-29.96491 -29.1228,-29.96491 -15.92983,0 -29.19298,13.05263 -29.19298,29.96491 z m 14.24561,0 c 0,-8.63157 4.77193,-17.26315 14.94737,-17.26315 10.24561,0 14.87719,8.63158 14.87719,17.26315 0,8.63158 -4.35088,17.26316 -14.87719,17.26316 -10.80702,0 -14.94737,-8.63158 -14.94737,-17.26316 z"/>
	</g>
	<g>
		<path d="m 594.75525,463.42189 c 0,1.19023 2.50797,0.25505 2.50797,1.14772 0,1.14771 -1.78533,8.034 -1.78533,11.94474 0,3.31562 1.57279,3.99575 2.72051,3.99575 2.63549,0 6.24867,-2.89055 6.24867,-3.99575 0,-0.59512 -0.34007,-0.59512 -0.46759,-0.59512 -0.68013,0 -1.65781,1.87036 -3.99575,1.87036 -0.17003,0 -1.74283,-0.085 -1.74283,-2.33794 0,-0.68013 0.97769,-6.20617 1.36026,-8.84166 0.25505,-1.74283 0.12752,-2.50797 1.36025,-2.50797 0.93518,0 2.76302,0.21254 3.44315,0.21254 0.76514,0 1.02019,-0.25505 1.02019,-1.23273 0,-0.5101 -0.21254,-0.80765 -1.10521,-0.80765 -0.46758,0 -0.80765,0.0425 -2.46546,0.0425 -1.40276,0 -1.48778,-0.0425 -1.48778,-0.29755 0,-0.63762 0.76515,-2.63549 0.76515,-3.1881 0,-0.38257 -0.21254,-0.51009 -0.42508,-0.51009 -0.68013,0 -0.76515,0.5526 -2.46547,2.33793 -1.87035,1.95537 -3.48565,1.91286 -3.48565,2.76302 z"/>
		<path d="m 606.86272,467.41764 c 0,0.59511 0.34006,0.72264 0.51009,0.72264 0.21254,0 0.34006,-0.12753 0.46759,-0.25505 0.25505,-0.29756 0.59511,-2.84804 2.33794,-2.84804 0.76514,0 1.44527,0.76515 1.44527,2.89055 0,3.18809 -1.82784,9.43677 -1.82784,11.13708 0,1.0202 0.85015,1.10521 1.27523,1.10521 l 0.21254,0 c 1.53029,0 1.44528,0 2.38045,-7.22635 l 0.21254,-1.40277 c 0.21254,-1.78533 1.27524,-7.35387 3.1881,-7.35387 1.53028,0 1.36025,1.78533 2.29543,1.78533 0.76514,0 0.85016,-1.31775 0.93517,-1.6153 0.12753,-0.46759 0.46759,-1.02019 0.46759,-1.5728 0,-0.59511 -0.46759,-1.31774 -1.57279,-1.31774 -3.14559,0 -5.27099,4.37832 -5.56855,4.37832 -0.085,0 -0.12752,-0.0425 -1.19022,-2.80553 -0.25505,-0.68013 -0.68013,-1.48778 -1.5728,-1.48778 -0.38257,0 -3.99574,1.02019 -3.99574,5.8661 z"/>
		<path d="m 620.45398,475.15409 c 0,2.76302 0.51009,5.48353 4.54835,5.48353 4.03826,0 7.56642,-5.10096 7.77896,-5.10096 0.29755,0 -0.085,4.7609 2.63549,4.7609 1.14772,0 3.06057,-1.95537 4.12327,-3.48566 0.55261,-0.76514 0.76515,-1.40276 0.76515,-1.82784 0,-0.17003 -0.0425,-0.46759 -0.38257,-0.46759 -0.80766,0 -1.70032,2.76302 -3.10309,2.76302 -0.80765,0 -1.44527,-1.40276 -1.44527,-2.50797 0,-1.6153 0.42508,-3.57067 0.76515,-5.44102 0.34006,-1.91286 0.59511,-3.86823 0.97768,-5.44102 0.29756,-1.23273 0.85016,-2.25292 0.85016,-2.93305 0,-0.46759 -0.21254,-0.63762 -0.46759,-0.63762 -0.85016,0 -1.36025,2.08289 -2.21041,2.08289 -1.40277,0 -2.29543,-0.46759 -3.61318,-0.46759 -1.10521,0 -1.95537,0.21254 -3.10308,0.76515 -2.25292,1.0627 -4.20829,3.10308 -5.73858,5.52603 -1.31775,2.1254 -2.38044,4.54836 -2.38044,6.9288 z m 2.97555,-0.25505 c 0,-0.76514 0.085,-1.53028 0.21254,-2.29543 0.38258,-2.21041 1.40277,-4.12327 2.6355,-6.16365 1.27524,-2.16791 3.52816,-3.44315 5.27099,-3.44315 0.89266,0 2.80552,0.29756 2.80552,1.48778 0,0.12753 -1.14771,7.94899 -2.1679,9.98937 -0.38258,0.76515 -2.38045,3.82572 -5.44102,3.82572 -1.78534,0 -3.31563,-1.27524 -3.31563,-3.40064 z"/>
		<path d="m 641.69999,466.35494 c 0,0.46759 0.085,0.80765 0.38257,0.80765 0.93518,0 1.40277,-2.38044 2.72051,-2.38044 0.42508,0 0.97769,0.85016 0.97769,2.33794 0,3.27311 -1.87036,9.86184 -1.87036,11.64718 0,1.23273 0.34007,1.31775 1.48778,1.31775 1.10521,0 1.44527,-0.17004 1.5728,-1.10521 0.085,-0.59511 -0.21254,-0.085 0.85016,-5.82359 1.02019,-5.48353 0.51009,-5.10096 2.33794,-7.69395 0.97768,-1.40276 1.78533,-1.87035 2.76301,-1.87035 2.76302,0 2.97556,2.80553 2.97556,3.48566 0,1.57279 -0.89267,7.26886 -0.89267,10.49947 0,1.48777 0.72264,2.678 1.5728,2.678 1.87035,0 5.61105,-2.97556 5.61105,-4.63337 0,-0.25505 -0.085,-0.5101 -0.38257,-0.5101 -0.63762,0 -0.80765,0.5101 -1.31775,1.14772 0,0 -0.97768,0.93517 -1.70032,0.93517 -0.46758,0 -0.80765,-0.34006 -0.80765,-1.53028 0,-1.44527 0.72264,-5.95112 0.72264,-8.92668 0,-2.678 -0.59511,-5.31349 -3.57067,-5.31349 -1.78534,0 -4.03826,1.53028 -5.18597,2.42295 -1.5728,1.19022 -1.87035,2.1254 -2.1254,2.1254 -0.38257,0 0.51009,-4.46334 -1.95537,-4.46334 -1.6153,0 -4.16578,3.1881 -4.16578,4.84591 z"/>
		<path d="m 663.65071,477.70457 c 0,2.25292 3.06057,2.80553 4.71838,2.80553 5.44102,0 6.63125,-4.03826 6.63125,-5.56855 0,-2.84803 -1.61531,-4.03826 -2.93305,-5.52603 -1.02019,-1.10521 -3.35813,-2.84804 -3.35813,-4.46334 0,-1.27524 0.63762,-2.25292 2.25292,-2.25292 1.65781,0 1.82784,2.38044 3.35813,2.38044 0.21254,0 1.6153,-0.12752 1.6153,-1.44527 0,-1.65781 -1.65781,-2.21041 -3.95324,-2.21041 -3.31562,0 -5.78108,1.95536 -5.78108,4.8034 0,2.55048 1.6153,3.65568 3.31562,5.39851 1.53029,1.53029 2.93305,2.76302 2.93305,4.76089 0,0.5101 -0.29756,2.72051 -3.40064,2.72051 -2.59299,0 -1.87035,-2.93305 -4.03826,-2.93305 -0.51009,0 -1.36025,0.21254 -1.36025,1.53029 z"/>
		<path d="m 678.75033,476.34431 c 0,3.99575 1.23273,3.99575 2.08289,3.99575 0.80765,0 2.59299,-0.85016 3.6982,-2.12539 1.02019,-1.19023 2.12539,-2.6355 2.12539,-3.06058 0,-0.42508 -0.21254,-0.68013 -0.51009,-0.68013 -1.10521,0 -1.53029,3.01807 -3.86823,3.01807 -0.5526,0 -0.68012,-0.21254 -0.68012,-1.65781 0,-1.44527 0.51009,-4.12327 1.23273,-9.13921 1.36025,-9.13922 0.63762,-7.56642 2.21041,-15.81297 0.12752,-0.80765 0.42508,-1.36025 0.42508,-1.95537 0,-0.42507 -0.21254,-0.68012 -0.89267,-0.68012 -1.1052,0 -2.04038,0.42508 -5.14346,0.63762 -0.5526,0.0425 -0.63762,0.38257 -0.63762,0.59511 0,0.46759 0.38257,0.59511 1.23273,0.59511 0.5101,0 0.59511,-0.0425 1.23273,-0.0425 0.63762,0 1.0627,0.34007 1.0627,0.85016 0,0.5101 -0.63762,4.33581 -1.36025,8.92667 -0.42508,2.72051 -0.63762,5.73858 -1.0202,8.41658 -0.085,0.68013 -1.19022,5.69607 -1.19022,8.11902 z"/>
		<path d="m 689.28036,475.15409 c 0,2.76302 0.51009,5.48353 4.54835,5.48353 4.03826,0 7.56642,-5.10096 7.77896,-5.10096 0.29755,0 -0.085,4.7609 2.63549,4.7609 1.14772,0 3.06058,-1.95537 4.12328,-3.48566 0.5526,-0.76514 0.76514,-1.40276 0.76514,-1.82784 0,-0.17003 -0.0425,-0.46759 -0.38257,-0.46759 -0.80765,0 -1.70032,2.76302 -3.10308,2.76302 -0.80766,0 -1.44528,-1.40276 -1.44528,-2.50797 0,-1.6153 0.42508,-3.57067 0.76515,-5.44102 0.34006,-1.91286 0.59511,-3.86823 0.97768,-5.44102 0.29756,-1.23273 0.85016,-2.25292 0.85016,-2.93305 0,-0.46759 -0.21254,-0.63762 -0.46759,-0.63762 -0.85016,0 -1.36025,2.08289 -2.21041,2.08289 -1.40276,0 -2.29543,-0.46759 -3.61318,-0.46759 -1.10521,0 -1.95537,0.21254 -3.10308,0.76515 -2.25292,1.0627 -4.20829,3.10308 -5.73858,5.52603 -1.31774,2.1254 -2.38044,4.54836 -2.38044,6.9288 z m 2.97556,-0.25505 c 0,-0.76514 0.085,-1.53028 0.21253,-2.29543 0.38258,-2.21041 1.40277,-4.12327 2.6355,-6.16365 1.27524,-2.16791 3.52816,-3.44315 5.27099,-3.44315 0.89266,0 2.80552,0.29756 2.80552,1.48778 0,0.12753 -1.14771,7.94899 -2.1679,9.98937 -0.38257,0.76515 -2.38045,3.82572 -5.44102,3.82572 -1.78534,0 -3.31562,-1.27524 -3.31562,-3.40064 z"/>
		<path d="m 711.15402,463.42189 c 0,1.19023 2.50797,0.25505 2.50797,1.14772 0,1.14771 -1.78533,8.034 -1.78533,11.94474 0,3.31562 1.57279,3.99575 2.72051,3.99575 2.63549,0 6.24867,-2.89055 6.24867,-3.99575 0,-0.59512 -0.34006,-0.59512 -0.46759,-0.59512 -0.68012,0 -1.65781,1.87036 -3.99575,1.87036 -0.17003,0 -1.74282,-0.085 -1.74282,-2.33794 0,-0.68013 0.97768,-6.20617 1.36025,-8.84166 0.25505,-1.74283 0.12753,-2.50797 1.36026,-2.50797 0.93517,0 2.76302,0.21254 3.44314,0.21254 0.76515,0 1.02019,-0.25505 1.02019,-1.23273 0,-0.5101 -0.21254,-0.80765 -1.1052,-0.80765 -0.46759,0 -0.80765,0.0425 -2.46547,0.0425 -1.40276,0 -1.48777,-0.0425 -1.48777,-0.29755 0,-0.63762 0.76514,-2.63549 0.76514,-3.1881 0,-0.38257 -0.21254,-0.51009 -0.42508,-0.51009 -0.68013,0 -0.76514,0.5526 -2.46546,2.33793 -1.87035,1.95537 -3.48566,1.91286 -3.48566,2.76302 z"/>
		<path d="m 723.40296,473.75133 c 0,3.78321 1.31775,6.75877 6.71626,6.75877 3.69819,0 7.39639,-2.97556 7.39639,-3.95325 0,-0.25504 -0.17003,-0.42508 -0.5101,-0.42508 -0.46759,0 -2.1679,1.82785 -4.59086,1.82785 -4.20829,0 -6.12115,-2.1254 -6.12115,-5.3135 0,-1.10521 0.12753,-1.74283 0.72264,-1.74283 3.99575,-0.0425 6.29118,-0.97768 6.67375,-1.14771 0.80765,-0.34006 4.12327,-2.08289 4.12327,-5.14346 0,-1.87036 -1.70032,-3.14559 -3.69819,-3.14559 -2.38045,0 -4.33581,0.76514 -5.90861,2.25292 -2.93305,2.72051 -4.8034,6.37619 -4.8034,10.03188 z m 3.48566,-4.42083 c 0,-0.5526 0.97768,-3.27311 2.25292,-4.59086 1.1052,-1.14772 2.42295,-1.99788 3.48565,-1.99788 0.72264,0 2.25292,0.38258 2.25292,1.99788 0,2.678 -3.48565,5.44102 -7.60892,5.44102 -0.29756,0 -0.38257,-0.5526 -0.38257,-0.85016 z"/>
		<path d="m 739.86816,474.6865 c 0,3.1881 1.48777,5.65356 5.10095,5.65356 4.20829,0 6.3762,-4.76089 6.75877,-4.76089 0.59511,0 -0.38257,4.76089 2.59299,4.76089 2.76301,0 5.44102,-4.2933 5.44102,-5.18597 0,-0.17003 -0.12753,-0.38257 -0.46759,-0.38257 -0.68013,0 -1.65781,2.63549 -3.52816,2.63549 -0.97769,0 -1.10521,-0.89266 -1.10521,-1.82784 0,-1.27524 0.42508,-3.95324 0.89267,-7.18385 2.38044,-17.38575 2.80552,-18.74601 2.80552,-19.85122 0,-0.38257 -0.29755,-0.72263 -0.68013,-0.72263 -1.14771,0 -0.89266,0.085 -3.27311,0.68013 -1.19022,0.29755 -2.678,0.12752 -2.678,0.85015 0,0.29756 0.25505,0.46759 0.68013,0.46759 0.0425,0 1.02019,-0.0425 1.48778,-0.0425 0.63762,0 1.23273,0.42508 1.23273,1.0627 0,0.29756 -1.40277,11.47715 -1.53029,11.47715 -1.19022,0 -2.04038,-0.5526 -3.14559,-0.5526 -5.05845,0 -10.58448,6.33369 -10.58448,12.92242 z m 2.97555,-1.19022 c 0,-4.46334 3.48566,-10.83953 7.39639,-10.83953 1.14772,0 2.84803,0.5526 2.84803,1.70032 0,1.70032 -0.63762,9.18172 -2.33793,11.30712 -1.10521,1.40276 -2.76302,2.21041 -4.29331,2.21041 -2.59299,0 -3.61318,-1.91286 -3.61318,-4.37832 z"/>
		<path d="m 771.07033,476.98193 c 0,2.46547 2.678,3.57067 5.18597,3.57067 6.58874,0 11.60468,-7.60892 11.60468,-13.39001 0,-2.76301 -1.48778,-5.39851 -4.67588,-5.39851 -4.88842,0 -6.88629,3.95324 -7.4814,3.95324 -0.085,0 -0.21254,-0.34006 -0.21254,-0.63762 0,-3.06057 2.72051,-15.72795 2.72051,-16.49309 0,-0.46759 -0.34007,-0.76514 -0.80765,-0.76514 -0.25505,0 -1.02019,0.25505 -2.67801,0.46759 -1.95536,0.25504 -3.14558,0.21254 -3.14558,1.06269 0,0.59512 0.34006,0.59512 0.80765,0.59512 0.63762,0 1.1052,-0.085 1.74282,-0.085 0.85016,0 1.0627,0.29756 1.0627,0.5101 0,1.02019 -0.25505,2.50797 -0.63762,4.33581 -0.63762,3.14559 -1.14771,7.26886 -1.91286,11.68969 -0.59511,3.44315 -1.57279,7.86397 -1.57279,10.58448 z m 2.80553,-0.51009 c 0,-0.42508 0.46758,-4.97343 1.70031,-8.33156 1.36026,-3.6982 4.12328,-4.12328 5.14347,-4.12328 2.33794,0 4.16578,1.95537 4.16578,4.33582 0,4.88841 -3.91073,11.00956 -7.73645,11.00956 -2.63549,0 -3.27311,-1.44527 -3.27311,-2.89054 z"/>
		<path d="m 789.50617,485.3135 c 0,1.95536 1.70032,2.50797 3.52816,2.50797 3.99575,0 6.71626,-4.84591 8.71414,-9.90436 2.50797,-6.33369 3.52816,-12.19979 3.52816,-14.11265 0,-1.31774 -0.72264,-2.25292 -1.65781,-2.25292 -1.02019,0 -1.44527,0.80765 -1.44527,1.5728 0,1.14771 1.0627,1.99787 1.0627,3.2306 0,2.84804 -0.93518,7.39639 -1.53029,7.39639 -0.46759,0 -4.50585,-12.07226 -8.62912,-12.07226 -2.59299,0 -3.44314,3.69819 -3.44314,5.48352 0,0.72264 0.17003,0.93518 0.42507,0.93518 1.27524,0 0.38258,-3.1881 2.84804,-3.1881 2.25292,0 6.9288,10.96706 6.9288,13.3475 0,1.61531 -2.80553,7.05633 -5.27099,7.05633 -1.95537,0 -1.99787,-1.40277 -3.69819,-1.40277 -0.72264,0 -1.36026,0.68013 -1.36026,1.40277 z"/>
	</g>
	<g>
		<path d="m 426.03399,501.40351 -8.79532,0 0,38.59649 8.79532,0 0,-38.59649 z"/>
		<path d="m 449.98428,500.70175 c -6.22222,0 -12.5848,4.5848 -12.5848,11.78948 0,4.02339 2.71345,7.62573 7.34503,9.91813 4.5848,2.29239 8.70176,3.55555 8.70176,6.36257 0,3.60234 -3.64913,3.78947 -5.56725,3.78947 -4.3041,0 -9.4503,-4.35087 -9.4503,-4.35087 l -4.39766,7.39181 c 0,0 5.47369,5.09941 14.50293,5.09941 7.53216,0 14.5497,-3.22807 14.5497,-12.44444 0,-5.05263 -4.72514,-8.70175 -9.02923,-10.52632 -4.39767,-1.87134 -8.04679,-3.4152 -8.04679,-5.56725 0,-2.10526 1.59064,-3.46199 4.5848,-3.46199 3.9766,0 7.81286,2.66667 7.81286,2.66667 l 3.55556,-7.01754 c 0,0 -4.95907,-3.64913 -11.97661,-3.64913 z"/>
		<path d="m 491.79714,501.40351 -8.14035,0 L 468.07784,540 l 9.4503,0 2.8538,-7.7193 14.69006,0 2.8538,7.7193 9.45029,0 -15.57895,-38.59649 z m 0.28071,23.15789 -8.70176,0 4.30409,-11.22807 0.0936,0 4.3041,11.22807 z"/>
		<path d="m 513.83589,501.40351 0,38.59649 14.64327,0 c 8,0 12.63158,-4.39766 12.63158,-10.76023 0,-6.22223 -3.4152,-8.88889 -8.23392,-9.731 3.27486,-1.68421 4.81872,-4.72514 4.81872,-8.2807 0,-7.34503 -5.23977,-9.82456 -11.88304,-9.82456 l -11.97661,0 z m 8.79532,15.11111 0,-8.32749 0.70175,0 c 3.83626,0 5.84796,1.16959 5.84796,3.92983 0,3.22807 -2.05848,4.39766 -5.84796,4.39766 l -0.70175,0 z m 0,16.70175 0,-9.1228 2.76023,0 c 4.16375,0 6.45614,1.26315 6.45614,4.81871 0,3.04094 -2.29239,4.30409 -6.45614,4.30409 l -2.76023,0 z"/>
		<path d="m 572.07638,501.40351 -22.08187,0 0,38.59649 22.08187,0 0,-7.7193 -13.28655,0 0,-7.76608 12.72515,0 0,-7.7193 -12.72515,0 0,-7.67251 13.28655,0 0,-7.7193 z"/>
		<path d="m 590.928,501.40351 -8.79532,0 0,38.59649 22.08187,0 0,-7.7193 -13.28655,0 0,-30.87719 z"/>
		<path d="m 653.64802,501.40351 -22.31579,0 0,38.59649 8.79532,0 0,-15.48538 12.49123,0 0,-7.7193 -12.49123,0 0,-7.67251 13.52047,0 0,-7.7193 z"/>
		<path d="m 665.78837,529.9883 c -2.94737,0 -5.33334,2.38597 -5.33334,5.38012 0,2.94737 2.38597,5.33333 5.33334,5.33333 2.99415,0 5.38012,-2.38596 5.38012,-5.33333 0,-2.99415 -2.38597,-5.38012 -5.38012,-5.38012 z"/>
		<path d="m 708.39876,524.51462 12.44445,0 0,15.48538 8.79532,0 0,-38.59649 -8.79532,0 0,15.39181 -12.44445,0 0,-15.39181 -8.79532,0 0,38.59649 8.79532,0 0,-15.48538 z"/>
		<path d="m 759.84174,501.40351 -8.14035,0 L 736.12244,540 l 9.45029,0 2.8538,-7.7193 14.69006,0 2.8538,7.7193 9.45029,0 -15.57894,-38.59649 z m 0.2807,23.15789 -8.70176,0 4.3041,-11.22807 0.0936,0 4.30409,11.22807 z"/>
		<path d="m 781.88048,501.40351 0,38.59649 8.79532,0 0,-14.31579 5.28655,0 c 7.53217,0 13.19298,-4.44444 13.19298,-12.39766 0,-8 -5.66081,-11.88304 -13.19298,-11.88304 l -14.08187,0 z m 8.79532,17.26316 0,-10.24562 2.47953,0 c 3.46199,0 6.73685,1.16959 6.73685,5.1462 0,3.92983 -3.27486,5.09942 -6.73685,5.09942 l -2.47953,0 z"/>
		<path d="m 852.9397,518.38596 -17.82457,0 0,6.78363 8.88889,0 c 0,4.72515 -4.16374,7.4386 -8.37427,7.4386 -5.4269,0 -9.82456,-5.33334 -9.82456,-11.88304 0,-6.69006 4.39766,-12.07018 9.82456,-12.07018 3.41521,0 6.36258,1.35673 8.60819,4.95906 l 5.75439,-6.31578 c -3.36842,-4.07018 -8.09357,-6.5965 -14.8772,-6.5965 -10.8538,0 -18.80701,8.93568 -18.80701,20.0234 0,11.04093 8.42105,19.9766 18.80701,19.9766 7.57895,0 15.7193,-4.16374 17.82457,-13.94152 l 0,-8.37427 z"/>
		<path d="m 860.05082,520.67836 c 0,11.27486 8.04679,20.02339 19.46199,20.02339 11.08772,0 19.41521,-8.74853 19.41521,-20.02339 0,-11.27485 -8.70176,-19.97661 -19.41521,-19.97661 -10.61988,0 -19.46199,8.70176 -19.46199,19.97661 z m 9.49708,0 c 0,-5.75438 3.18129,-11.50877 9.96491,-11.50877 6.83041,0 9.91813,5.75439 9.91813,11.50877 0,5.75439 -2.90058,11.50877 -9.91813,11.50877 -7.20468,0 -9.96491,-5.75438 -9.96491,-11.50877 z"/>
		<path d="m 906.07786,520.67836 c 0,11.27486 8.04679,20.02339 19.46199,20.02339 11.08772,0 19.41521,-8.74853 19.41521,-20.02339 0,-11.27485 -8.70176,-19.97661 -19.41521,-19.97661 -10.61988,0 -19.46199,8.70176 -19.46199,19.97661 z m 9.49708,0 c 0,-5.75438 3.18128,-11.50877 9.96491,-11.50877 6.83041,0 9.91813,5.75439 9.91813,11.50877 0,5.75439 -2.90059,11.50877 -9.91813,11.50877 -7.20468,0 -9.96491,-5.75438 -9.96491,-11.50877 z"/>
		<path d="m 953.83589,501.40351 0,38.59649 11.18129,0 c 10.61988,0 19.46199,-8.04678 19.46199,-19.32164 0,-11.22807 -8.88889,-19.27485 -19.46199,-19.27485 l -11.18129,0 z m 8.79533,30.73684 0,-22.87719 1.35672,0 c 6.54971,0 10.99415,5.00585 10.99415,11.46199 -0.0468,6.45614 -4.49122,11.4152 -10.99415,11.4152 l -1.35672,0 z"/>
	</g>
</svg>
